<?xml version="1.0" encoding="UTF-8"?>
<svg width="200px" height="200px" viewBox="0 0 200 200" version="1.1" xmlns="http://www.w3.org/2000/svg">
    <title>US Bank GL Processor Logo</title>
    <g stroke="none" stroke-width="1" fill="none" fill-rule="evenodd">
        <rect fill="#0A4B94" x="0" y="0" width="200" height="200" rx="20"></rect>
        <g transform="translate(30.000000, 40.000000)">
            <path d="M20,0 L120,0 C131.045695,-2.02906125e-15 140,8.954305 140,20 L140,100 C140,111.045695 131.045695,120 120,120 L20,120 C8.954305,120 1.3527075e-15,111.045695 0,100 L0,20 C-1.3527075e-15,8.954305 8.954305,2.02906125e-15 20,0 Z" fill="#FFFFFF" opacity="0.1"></path>
            <rect fill="#FFFFFF" x="20" y="20" width="100" height="10" rx="5"></rect>
            <rect fill="#FFFFFF" x="20" y="40" width="100" height="10" rx="5"></rect>
            <rect fill="#FFFFFF" x="20" y="60" width="60" height="10" rx="5"></rect>
            <rect fill="#00A86B" x="90" y="60" width="30" height="10" rx="5"></rect>
            <rect fill="#FFFFFF" x="20" y="80" width="40" height="10" rx="5"></rect>
            <rect fill="#00A86B" x="70" y="80" width="50" height="10" rx="5"></rect>
            <circle fill="#FFB81C" cx="130" cy="20" r="10"></circle>
        </g>
    </g>
</svg>
